<?xml version="1.0" encoding="UTF-8" standalone="no"?>
<!DOCTYPE svg PUBLIC "-//W3C//DTD SVG 1.1//EN"
 "http://www.w3.org/Graphics/SVG/1.1/DTD/svg11.dtd">
<!-- Generated by graphviz version 2.47.3 (20210619.1520)
 -->
<!-- Title: dependencies Pages: 1 -->
<svg width="390pt" height="174pt"
 viewBox="0.00 0.00 390.00 173.80" xmlns="http://www.w3.org/2000/svg" xmlns:xlink="http://www.w3.org/1999/xlink">
<g id="graph0" class="graph" transform="scale(1 1) rotate(0) translate(4 169.8)">
<title>dependencies</title>
<polygon fill="white" stroke="transparent" points="-4,4 -4,-169.8 386,-169.8 386,4 -4,4"/>
<text text-anchor="middle" x="191" y="-8.2" font-family="sans-serif" font-size="14.00">dependencies</text>
<g id="clust1" class="cluster">
<title>cluster_SharedModule</title>
<polygon fill="none" stroke="black" stroke-dasharray="1,5" points="8,-32.8 8,-157.8 374,-157.8 374,-32.8 8,-32.8"/>
</g>
<g id="clust2" class="cluster">
<title>cluster_SharedModule_declarations</title>
<polygon fill="none" stroke="black" points="16,-40.8 16,-92.8 366,-92.8 366,-40.8 16,-40.8"/>
</g>
<!-- EditCellComponent -->
<g id="node1" class="node">
<title>EditCellComponent</title>
<polygon fill="#ffffb3" stroke="black" points="358,-84.8 230,-84.8 230,-48.8 358,-48.8 358,-84.8"/>
<text text-anchor="middle" x="294" y="-62.6" font-family="Times,serif" font-size="14.00">EditCellComponent</text>
</g>
<!-- SharedModule -->
<g id="node3" class="node">
<title>SharedModule</title>
<polygon fill="#8dd3c7" stroke="black" points="255.42,-149.8 252.42,-153.8 231.42,-153.8 228.42,-149.8 156.58,-149.8 156.58,-113.8 255.42,-113.8 255.42,-149.8"/>
<text text-anchor="middle" x="206" y="-127.6" font-family="Times,serif" font-size="14.00">SharedModule</text>
</g>
<!-- EditCellComponent&#45;&gt;SharedModule -->
<g id="edge1" class="edge">
<title>EditCellComponent&#45;&gt;SharedModule</title>
<path fill="none" stroke="black" d="M242.61,-84.91C242.61,-84.91 242.61,-103.79 242.61,-103.79"/>
<polygon fill="black" stroke="black" points="239.11,-103.79 242.61,-113.79 246.11,-103.79 239.11,-103.79"/>
</g>
<!-- TableWithEditCellComponent -->
<g id="node2" class="node">
<title>TableWithEditCellComponent</title>
<polygon fill="#ffffb3" stroke="black" points="211.87,-84.8 24.13,-84.8 24.13,-48.8 211.87,-48.8 211.87,-84.8"/>
<text text-anchor="middle" x="118" y="-62.6" font-family="Times,serif" font-size="14.00">TableWithEditCellComponent</text>
</g>
<!-- TableWithEditCellComponent&#45;&gt;SharedModule -->
<g id="edge2" class="edge">
<title>TableWithEditCellComponent&#45;&gt;SharedModule</title>
<path fill="none" stroke="black" d="M184.36,-84.91C184.36,-84.91 184.36,-103.79 184.36,-103.79"/>
<polygon fill="black" stroke="black" points="180.86,-103.79 184.36,-113.79 187.86,-103.79 180.86,-103.79"/>
</g>
</g>
</svg>
