<?xml version="1.0" encoding="UTF-8" standalone="no"?>
<!DOCTYPE svg PUBLIC "-//W3C//DTD SVG 1.1//EN"
 "http://www.w3.org/Graphics/SVG/1.1/DTD/svg11.dtd">
<!-- Generated by graphviz version 2.47.3 (20210619.1520)
 -->
<!-- Title: dependencies Pages: 1 -->
<svg width="748pt" height="247pt"
 viewBox="0.00 0.00 748.00 246.80" xmlns="http://www.w3.org/2000/svg" xmlns:xlink="http://www.w3.org/1999/xlink">
<g id="graph0" class="graph" transform="scale(1 1) rotate(0) translate(4 242.8)">
<title>dependencies</title>
<polygon fill="white" stroke="transparent" points="-4,4 -4,-242.8 744,-242.8 744,4 -4,4"/>
<text text-anchor="middle" x="370" y="-8.2" font-family="sans-serif" font-size="14.00">dependencies</text>
<g id="clust1" class="cluster">
<title>cluster_SharedModule</title>
<polygon fill="none" stroke="black" stroke-dasharray="1,5" points="8,-32.8 8,-230.8 732,-230.8 732,-32.8 8,-32.8"/>
</g>
<g id="clust5" class="cluster">
<title>cluster_SharedModule_imports</title>
<polygon fill="none" stroke="black" points="378,-40.8 378,-92.8 720,-92.8 720,-40.8 378,-40.8"/>
</g>
<g id="clust6" class="cluster">
<title>cluster_SharedModule_exports</title>
<polygon fill="none" stroke="black" points="16,-170.8 16,-222.8 724,-222.8 724,-170.8 16,-170.8"/>
</g>
<g id="clust2" class="cluster">
<title>cluster_SharedModule_declarations</title>
<polygon fill="none" stroke="black" points="20,-40.8 20,-92.8 370,-92.8 370,-40.8 20,-40.8"/>
</g>
<!-- EditCellComponent -->
<g id="node1" class="node">
<title>EditCellComponent</title>
<polygon fill="#ffffb3" stroke="black" points="362,-84.8 234,-84.8 234,-48.8 362,-48.8 362,-84.8"/>
<text text-anchor="middle" x="298" y="-62.6" font-family="Times,serif" font-size="14.00">EditCellComponent</text>
</g>
<!-- SharedModule -->
<g id="node3" class="node">
<title>SharedModule</title>
<polygon fill="#8dd3c7" stroke="black" points="465.42,-149.8 462.42,-153.8 441.42,-153.8 438.42,-149.8 366.58,-149.8 366.58,-113.8 465.42,-113.8 465.42,-149.8"/>
<text text-anchor="middle" x="416" y="-127.6" font-family="Times,serif" font-size="14.00">SharedModule</text>
</g>
<!-- EditCellComponent&#45;&gt;SharedModule -->
<g id="edge1" class="edge">
<title>EditCellComponent&#45;&gt;SharedModule</title>
<path fill="none" stroke="black" d="M362.18,-66.8C370.72,-66.8 376.6,-66.8 376.6,-66.8 376.6,-66.8 376.6,-103.69 376.6,-103.69"/>
<polygon fill="black" stroke="black" points="373.1,-103.69 376.6,-113.69 380.1,-103.69 373.1,-103.69"/>
</g>
<!-- TableWithEditCellComponent -->
<g id="node2" class="node">
<title>TableWithEditCellComponent</title>
<polygon fill="#ffffb3" stroke="black" points="215.87,-84.8 28.13,-84.8 28.13,-48.8 215.87,-48.8 215.87,-84.8"/>
<text text-anchor="middle" x="122" y="-62.6" font-family="Times,serif" font-size="14.00">TableWithEditCellComponent</text>
</g>
<!-- TableWithEditCellComponent&#45;&gt;SharedModule -->
<g id="edge2" class="edge">
<title>TableWithEditCellComponent&#45;&gt;SharedModule</title>
<path fill="none" stroke="black" d="M153.14,-84.82C153.14,-102.17 153.14,-125.8 153.14,-125.8 153.14,-125.8 356.56,-125.8 356.56,-125.8"/>
<polygon fill="black" stroke="black" points="356.56,-129.3 366.56,-125.8 356.56,-122.3 356.56,-129.3"/>
</g>
<!-- EditCellComponent  -->
<g id="node6" class="node">
<title>EditCellComponent </title>
<polygon fill="#fb8072" stroke="black" points="716,-214.8 584,-214.8 584,-178.8 716,-178.8 716,-214.8"/>
<text text-anchor="middle" x="650" y="-192.6" font-family="Times,serif" font-size="14.00">EditCellComponent </text>
</g>
<!-- SharedModule&#45;&gt;EditCellComponent  -->
<g id="edge5" class="edge">
<title>SharedModule&#45;&gt;EditCellComponent </title>
<path fill="none" stroke="black" stroke-dasharray="5,2" d="M465.66,-137.8C517.37,-137.8 590.92,-137.8 590.92,-137.8 590.92,-137.8 590.92,-168.78 590.92,-168.78"/>
<polygon fill="black" stroke="black" points="587.42,-168.78 590.92,-178.78 594.42,-168.78 587.42,-168.78"/>
</g>
<!-- ModalModule  -->
<g id="node7" class="node">
<title>ModalModule </title>
<polygon fill="#fb8072" stroke="black" points="565.6,-214.8 466.4,-214.8 466.4,-178.8 565.6,-178.8 565.6,-214.8"/>
<text text-anchor="middle" x="516" y="-192.6" font-family="Times,serif" font-size="14.00">ModalModule </text>
</g>
<!-- SharedModule&#45;&gt;ModalModule  -->
<g id="edge6" class="edge">
<title>SharedModule&#45;&gt;ModalModule </title>
<path fill="none" stroke="black" stroke-dasharray="5,2" d="M456.78,-149.91C456.78,-169.14 456.78,-196.8 456.78,-196.8 456.78,-196.8 457.73,-196.8 457.73,-196.8"/>
<polygon fill="black" stroke="black" points="456.29,-200.3 466.29,-196.8 456.29,-193.3 456.29,-200.3"/>
</g>
<!-- ResponsiveSideNavigationModule  -->
<g id="node8" class="node">
<title>ResponsiveSideNavigationModule </title>
<polygon fill="#fb8072" stroke="black" points="448.19,-214.8 233.81,-214.8 233.81,-178.8 448.19,-178.8 448.19,-214.8"/>
<text text-anchor="middle" x="341" y="-192.6" font-family="Times,serif" font-size="14.00">ResponsiveSideNavigationModule </text>
</g>
<!-- SharedModule&#45;&gt;ResponsiveSideNavigationModule  -->
<g id="edge7" class="edge">
<title>SharedModule&#45;&gt;ResponsiveSideNavigationModule </title>
<path fill="none" stroke="black" stroke-dasharray="5,2" d="M407.57,-149.91C407.57,-149.91 407.57,-168.79 407.57,-168.79"/>
<polygon fill="black" stroke="black" points="404.07,-168.79 407.57,-178.79 411.07,-168.79 404.07,-168.79"/>
</g>
<!-- TableWithEditCellComponent  -->
<g id="node9" class="node">
<title>TableWithEditCellComponent </title>
<polygon fill="#fb8072" stroke="black" points="215.87,-214.8 24.13,-214.8 24.13,-178.8 215.87,-178.8 215.87,-214.8"/>
<text text-anchor="middle" x="120" y="-192.6" font-family="Times,serif" font-size="14.00">TableWithEditCellComponent </text>
</g>
<!-- SharedModule&#45;&gt;TableWithEditCellComponent  -->
<g id="edge8" class="edge">
<title>SharedModule&#45;&gt;TableWithEditCellComponent </title>
<path fill="none" stroke="black" stroke-dasharray="5,2" d="M366.58,-137.8C275.55,-137.8 90.61,-137.8 90.61,-137.8 90.61,-137.8 90.61,-168.78 90.61,-168.78"/>
<polygon fill="black" stroke="black" points="87.11,-168.78 90.61,-178.78 94.11,-168.78 87.11,-168.78"/>
</g>
<!-- ModalModule -->
<g id="node4" class="node">
<title>ModalModule</title>
<polygon fill="#8dd3c7" stroke="black" points="712.1,-84.8 709.1,-88.8 688.1,-88.8 685.1,-84.8 615.9,-84.8 615.9,-48.8 712.1,-48.8 712.1,-84.8"/>
<text text-anchor="middle" x="664" y="-62.6" font-family="Times,serif" font-size="14.00">ModalModule</text>
</g>
<!-- ModalModule&#45;&gt;SharedModule -->
<g id="edge3" class="edge">
<title>ModalModule&#45;&gt;SharedModule</title>
<path fill="none" stroke="black" d="M664,-84.82C664,-102.17 664,-125.8 664,-125.8 664,-125.8 475.29,-125.8 475.29,-125.8"/>
<polygon fill="black" stroke="black" points="475.29,-122.3 465.29,-125.8 475.29,-129.3 475.29,-122.3"/>
</g>
<!-- ResponsiveSideNavigationModule -->
<g id="node5" class="node">
<title>ResponsiveSideNavigationModule</title>
<polygon fill="#8dd3c7" stroke="black" points="597.69,-84.8 594.69,-88.8 573.69,-88.8 570.69,-84.8 386.31,-84.8 386.31,-48.8 597.69,-48.8 597.69,-84.8"/>
<text text-anchor="middle" x="492" y="-62.6" font-family="Times,serif" font-size="14.00">ResponsiveSideNavigationModule</text>
</g>
<!-- ResponsiveSideNavigationModule&#45;&gt;SharedModule -->
<g id="edge4" class="edge">
<title>ResponsiveSideNavigationModule&#45;&gt;SharedModule</title>
<path fill="none" stroke="black" d="M425.81,-84.91C425.81,-84.91 425.81,-103.79 425.81,-103.79"/>
<polygon fill="black" stroke="black" points="422.31,-103.79 425.81,-113.79 429.31,-103.79 422.31,-103.79"/>
</g>
</g>
</svg>
