<?xml version="1.0" encoding="UTF-8" standalone="no"?>
<!DOCTYPE svg PUBLIC "-//W3C//DTD SVG 1.1//EN"
 "http://www.w3.org/Graphics/SVG/1.1/DTD/svg11.dtd">
<!-- Generated by graphviz version 2.47.3 (20210619.1520)
 -->
<!-- Title: dependencies Pages: 1 -->
<svg width="204pt" height="174pt"
 viewBox="0.00 0.00 204.00 173.80" xmlns="http://www.w3.org/2000/svg" xmlns:xlink="http://www.w3.org/1999/xlink">
<g id="graph0" class="graph" transform="scale(1 1) rotate(0) translate(4 169.8)">
<title>dependencies</title>
<polygon fill="white" stroke="transparent" points="-4,4 -4,-169.8 200,-169.8 200,4 -4,4"/>
<text text-anchor="middle" x="98" y="-8.2" font-family="sans-serif" font-size="14.00">dependencies</text>
<g id="clust1" class="cluster">
<title>cluster_ReservationsModule</title>
<polygon fill="none" stroke="black" stroke-dasharray="1,5" points="8,-32.8 8,-157.8 188,-157.8 188,-32.8 8,-32.8"/>
</g>
<g id="clust2" class="cluster">
<title>cluster_ReservationsModule_declarations</title>
<polygon fill="none" stroke="black" points="16,-40.8 16,-92.8 180,-92.8 180,-40.8 16,-40.8"/>
</g>
<!-- ReservationComponent -->
<g id="node1" class="node">
<title>ReservationComponent</title>
<polygon fill="#ffffb3" stroke="black" points="172.2,-84.8 169.2,-88.8 148.2,-88.8 145.2,-84.8 23.8,-84.8 23.8,-48.8 172.2,-48.8 172.2,-84.8"/>
<text text-anchor="middle" x="98" y="-62.6" font-family="Times,serif" font-size="14.00">ReservationComponent</text>
</g>
<!-- ReservationsModule -->
<g id="node2" class="node">
<title>ReservationsModule</title>
<polygon fill="#8dd3c7" stroke="black" points="163.86,-149.8 160.86,-153.8 139.86,-153.8 136.86,-149.8 32.14,-149.8 32.14,-113.8 163.86,-113.8 163.86,-149.8"/>
<text text-anchor="middle" x="98" y="-127.6" font-family="Times,serif" font-size="14.00">ReservationsModule</text>
</g>
<!-- ReservationComponent&#45;&gt;ReservationsModule -->
<g id="edge1" class="edge">
<title>ReservationComponent&#45;&gt;ReservationsModule</title>
<path fill="none" stroke="black" d="M76.02,-84.91C76.02,-84.91 76.02,-103.79 76.02,-103.79"/>
<polygon fill="black" stroke="black" points="72.52,-103.79 76.02,-113.79 79.52,-103.79 72.52,-103.79"/>
</g>
<!-- ReservationComponent&#45;&gt;ReservationsModule -->
<g id="edge2" class="edge">
<title>ReservationComponent&#45;&gt;ReservationsModule</title>
<path fill="none" stroke="black" d="M119.98,-84.91C119.98,-84.91 119.98,-103.79 119.98,-103.79"/>
<polygon fill="black" stroke="black" points="116.48,-103.79 119.98,-113.79 123.48,-103.79 116.48,-103.79"/>
</g>
</g>
</svg>
