<?xml version="1.0" encoding="UTF-8" standalone="no"?>
<!DOCTYPE svg PUBLIC "-//W3C//DTD SVG 1.1//EN"
 "http://www.w3.org/Graphics/SVG/1.1/DTD/svg11.dtd">
<!-- Generated by graphviz version 2.47.3 (20210619.1520)
 -->
<!-- Title: dependencies Pages: 1 -->
<svg width="384pt" height="174pt"
 viewBox="0.00 0.00 384.00 173.80" xmlns="http://www.w3.org/2000/svg" xmlns:xlink="http://www.w3.org/1999/xlink">
<g id="graph0" class="graph" transform="scale(1 1) rotate(0) translate(4 169.8)">
<title>dependencies</title>
<polygon fill="white" stroke="transparent" points="-4,4 -4,-169.8 380,-169.8 380,4 -4,4"/>
<text text-anchor="middle" x="188" y="-8.2" font-family="sans-serif" font-size="14.00">dependencies</text>
<g id="clust1" class="cluster">
<title>cluster_AccountsModule</title>
<polygon fill="none" stroke="black" stroke-dasharray="1,5" points="8,-32.8 8,-157.8 368,-157.8 368,-32.8 8,-32.8"/>
</g>
<g id="clust2" class="cluster">
<title>cluster_AccountsModule_declarations</title>
<polygon fill="none" stroke="black" points="16,-40.8 16,-92.8 360,-92.8 360,-40.8 16,-40.8"/>
</g>
<!-- CustomersComponent -->
<g id="node1" class="node">
<title>CustomersComponent</title>
<polygon fill="#ffffb3" stroke="black" points="351.71,-84.8 210.29,-84.8 210.29,-48.8 351.71,-48.8 351.71,-84.8"/>
<text text-anchor="middle" x="281" y="-62.6" font-family="Times,serif" font-size="14.00">CustomersComponent</text>
</g>
<!-- AccountsModule -->
<g id="node3" class="node">
<title>AccountsModule</title>
<polygon fill="#8dd3c7" stroke="black" points="250.42,-149.8 247.42,-153.8 226.42,-153.8 223.42,-149.8 137.58,-149.8 137.58,-113.8 250.42,-113.8 250.42,-149.8"/>
<text text-anchor="middle" x="194" y="-127.6" font-family="Times,serif" font-size="14.00">AccountsModule</text>
</g>
<!-- CustomersComponent&#45;&gt;AccountsModule -->
<g id="edge1" class="edge">
<title>CustomersComponent&#45;&gt;AccountsModule</title>
<path fill="none" stroke="black" d="M230.3,-84.91C230.3,-84.91 230.3,-103.79 230.3,-103.79"/>
<polygon fill="black" stroke="black" points="226.8,-103.79 230.3,-113.79 233.8,-103.79 226.8,-103.79"/>
</g>
<!-- CustomersPageComponent -->
<g id="node2" class="node">
<title>CustomersPageComponent</title>
<polygon fill="#ffffb3" stroke="black" points="192.43,-84.8 23.57,-84.8 23.57,-48.8 192.43,-48.8 192.43,-84.8"/>
<text text-anchor="middle" x="108" y="-62.6" font-family="Times,serif" font-size="14.00">CustomersPageComponent</text>
</g>
<!-- CustomersPageComponent&#45;&gt;AccountsModule -->
<g id="edge2" class="edge">
<title>CustomersPageComponent&#45;&gt;AccountsModule</title>
<path fill="none" stroke="black" d="M165,-84.91C165,-84.91 165,-103.79 165,-103.79"/>
<polygon fill="black" stroke="black" points="161.5,-103.79 165,-113.79 168.5,-103.79 161.5,-103.79"/>
</g>
</g>
</svg>
