<?xml version="1.0" encoding="UTF-8" standalone="no"?>
<!DOCTYPE svg PUBLIC "-//W3C//DTD SVG 1.1//EN"
 "http://www.w3.org/Graphics/SVG/1.1/DTD/svg11.dtd">
<!-- Generated by graphviz version 2.47.3 (20210619.1520)
 -->
<!-- Title: dependencies Pages: 1 -->
<svg width="1128pt" height="247pt"
 viewBox="0.00 0.00 1128.00 246.80" xmlns="http://www.w3.org/2000/svg" xmlns:xlink="http://www.w3.org/1999/xlink">
<g id="graph0" class="graph" transform="scale(1 1) rotate(0) translate(4 242.8)">
<title>dependencies</title>
<polygon fill="white" stroke="transparent" points="-4,4 -4,-242.8 1124,-242.8 1124,4 -4,4"/>
<text text-anchor="middle" x="560" y="-8.2" font-family="sans-serif" font-size="14.00">dependencies</text>
<g id="clust1" class="cluster">
<title>cluster_AppModule</title>
<polygon fill="none" stroke="black" stroke-dasharray="1,5" points="8,-32.8 8,-230.8 1112,-230.8 1112,-32.8 8,-32.8"/>
</g>
<g id="clust8" class="cluster">
<title>cluster_AppModule_bootstrap</title>
<polygon fill="none" stroke="black" points="535,-170.8 535,-222.8 659,-222.8 659,-170.8 535,-170.8"/>
</g>
<g id="clust9" class="cluster">
<title>cluster_AppModule_providers</title>
<polygon fill="none" stroke="black" points="988,-40.8 988,-92.8 1104,-92.8 1104,-40.8 988,-40.8"/>
</g>
<g id="clust6" class="cluster">
<title>cluster_AppModule_imports</title>
<polygon fill="none" stroke="black" points="477,-40.8 477,-92.8 980,-92.8 980,-40.8 477,-40.8"/>
</g>
<g id="clust2" class="cluster">
<title>cluster_AppModule_declarations</title>
<polygon fill="none" stroke="black" points="16,-40.8 16,-92.8 469,-92.8 469,-40.8 16,-40.8"/>
</g>
<!-- AccountsComponent -->
<g id="node1" class="node">
<title>AccountsComponent</title>
<polygon fill="#ffffb3" stroke="black" points="461.2,-84.8 326.8,-84.8 326.8,-48.8 461.2,-48.8 461.2,-84.8"/>
<text text-anchor="middle" x="394" y="-62.6" font-family="Times,serif" font-size="14.00">AccountsComponent</text>
</g>
<!-- AppModule -->
<g id="node4" class="node">
<title>AppModule</title>
<polygon fill="#8dd3c7" stroke="black" points="638.66,-149.8 635.66,-153.8 614.66,-153.8 611.66,-149.8 555.34,-149.8 555.34,-113.8 638.66,-113.8 638.66,-149.8"/>
<text text-anchor="middle" x="597" y="-127.6" font-family="Times,serif" font-size="14.00">AppModule</text>
</g>
<!-- AccountsComponent&#45;&gt;AppModule -->
<g id="edge1" class="edge">
<title>AccountsComponent&#45;&gt;AppModule</title>
<path fill="none" stroke="black" d="M394,-84.83C394,-101.2 394,-122.8 394,-122.8 394,-122.8 544.94,-122.8 544.94,-122.8"/>
<polygon fill="black" stroke="black" points="544.94,-126.3 554.94,-122.8 544.94,-119.3 544.94,-126.3"/>
</g>
<!-- AccountsPageComponent -->
<g id="node2" class="node">
<title>AccountsPageComponent</title>
<polygon fill="#ffffb3" stroke="black" points="308.92,-84.8 147.08,-84.8 147.08,-48.8 308.92,-48.8 308.92,-84.8"/>
<text text-anchor="middle" x="228" y="-62.6" font-family="Times,serif" font-size="14.00">AccountsPageComponent</text>
</g>
<!-- AccountsPageComponent&#45;&gt;AppModule -->
<g id="edge2" class="edge">
<title>AccountsPageComponent&#45;&gt;AppModule</title>
<path fill="none" stroke="black" d="M228,-84.91C228,-104.14 228,-131.8 228,-131.8 228,-131.8 545.03,-131.8 545.03,-131.8"/>
<polygon fill="black" stroke="black" points="545.03,-135.3 555.03,-131.8 545.03,-128.3 545.03,-135.3"/>
</g>
<!-- AppComponent -->
<g id="node3" class="node">
<title>AppComponent</title>
<polygon fill="#ffffb3" stroke="black" points="129.94,-84.8 24.06,-84.8 24.06,-48.8 129.94,-48.8 129.94,-84.8"/>
<text text-anchor="middle" x="77" y="-62.6" font-family="Times,serif" font-size="14.00">AppComponent</text>
</g>
<!-- AppComponent&#45;&gt;AppModule -->
<g id="edge3" class="edge">
<title>AppComponent&#45;&gt;AppModule</title>
<path fill="none" stroke="black" d="M77,-85.09C77,-107.01 77,-140.8 77,-140.8 77,-140.8 545.33,-140.8 545.33,-140.8"/>
<polygon fill="black" stroke="black" points="545.33,-144.3 555.33,-140.8 545.33,-137.3 545.33,-144.3"/>
</g>
<!-- AppComponent  -->
<g id="node9" class="node">
<title>AppComponent </title>
<polygon fill="#80b1d3" stroke="black" points="651.44,-214.8 542.56,-214.8 542.56,-178.8 651.44,-178.8 651.44,-214.8"/>
<text text-anchor="middle" x="597" y="-192.6" font-family="Times,serif" font-size="14.00">AppComponent </text>
</g>
<!-- AppModule&#45;&gt;AppComponent  -->
<g id="edge8" class="edge">
<title>AppModule&#45;&gt;AppComponent </title>
<path fill="none" stroke="black" stroke-dasharray="1,5" d="M597,-149.91C597,-149.91 597,-168.79 597,-168.79"/>
<polygon fill="black" stroke="black" points="593.5,-168.79 597,-178.79 600.5,-168.79 593.5,-168.79"/>
</g>
<!-- AppRoutingModule -->
<g id="node5" class="node">
<title>AppRoutingModule</title>
<polygon fill="#8dd3c7" stroke="black" points="972.27,-84.8 969.27,-88.8 948.27,-88.8 945.27,-84.8 843.73,-84.8 843.73,-48.8 972.27,-48.8 972.27,-84.8"/>
<text text-anchor="middle" x="908" y="-62.6" font-family="Times,serif" font-size="14.00">AppRoutingModule</text>
</g>
<!-- AppRoutingModule&#45;&gt;AppModule -->
<g id="edge4" class="edge">
<title>AppRoutingModule&#45;&gt;AppModule</title>
<path fill="none" stroke="black" d="M908,-84.91C908,-104.14 908,-131.8 908,-131.8 908,-131.8 648.94,-131.8 648.94,-131.8"/>
<polygon fill="black" stroke="black" points="648.94,-128.3 638.94,-131.8 648.94,-135.3 648.94,-128.3"/>
</g>
<!-- CoreModule -->
<g id="node6" class="node">
<title>CoreModule</title>
<polygon fill="#8dd3c7" stroke="black" points="825.26,-84.8 822.26,-88.8 801.26,-88.8 798.26,-84.8 738.74,-84.8 738.74,-48.8 825.26,-48.8 825.26,-84.8"/>
<text text-anchor="middle" x="782" y="-62.6" font-family="Times,serif" font-size="14.00">CoreModule</text>
</g>
<!-- CoreModule&#45;&gt;AppModule -->
<g id="edge5" class="edge">
<title>CoreModule&#45;&gt;AppModule</title>
<path fill="none" stroke="black" d="M782,-84.83C782,-101.2 782,-122.8 782,-122.8 782,-122.8 648.98,-122.8 648.98,-122.8"/>
<polygon fill="black" stroke="black" points="648.98,-119.3 638.98,-122.8 648.98,-126.3 648.98,-119.3"/>
</g>
<!-- CustomersModule -->
<g id="node7" class="node">
<title>CustomersModule</title>
<polygon fill="#8dd3c7" stroke="black" points="720.93,-84.8 717.93,-88.8 696.93,-88.8 693.93,-84.8 601.07,-84.8 601.07,-48.8 720.93,-48.8 720.93,-84.8"/>
<text text-anchor="middle" x="661" y="-62.6" font-family="Times,serif" font-size="14.00">CustomersModule</text>
</g>
<!-- CustomersModule&#45;&gt;AppModule -->
<g id="edge6" class="edge">
<title>CustomersModule&#45;&gt;AppModule</title>
<path fill="none" stroke="black" d="M620.06,-84.91C620.06,-84.91 620.06,-103.79 620.06,-103.79"/>
<polygon fill="black" stroke="black" points="616.56,-103.79 620.06,-113.79 623.56,-103.79 616.56,-103.79"/>
</g>
<!-- SharedModule -->
<g id="node8" class="node">
<title>SharedModule</title>
<polygon fill="#8dd3c7" stroke="black" points="583.42,-84.8 580.42,-88.8 559.42,-88.8 556.42,-84.8 484.58,-84.8 484.58,-48.8 583.42,-48.8 583.42,-84.8"/>
<text text-anchor="middle" x="534" y="-62.6" font-family="Times,serif" font-size="14.00">SharedModule</text>
</g>
<!-- SharedModule&#45;&gt;AppModule -->
<g id="edge7" class="edge">
<title>SharedModule&#45;&gt;AppModule</title>
<path fill="none" stroke="black" d="M569.19,-84.91C569.19,-84.91 569.19,-103.79 569.19,-103.79"/>
<polygon fill="black" stroke="black" points="565.69,-103.79 569.19,-113.79 572.69,-103.79 565.69,-103.79"/>
</g>
<!-- Endpoints -->
<g id="node10" class="node">
<title>Endpoints</title>
<ellipse fill="#fdb462" stroke="black" cx="1046" cy="-66.8" rx="50.4" ry="18"/>
<text text-anchor="middle" x="1046" y="-62.6" font-family="Times,serif" font-size="14.00">Endpoints</text>
</g>
<!-- Endpoints&#45;&gt;AppModule -->
<g id="edge9" class="edge">
<title>Endpoints&#45;&gt;AppModule</title>
<path fill="none" stroke="black" d="M1046,-85.09C1046,-107.01 1046,-140.8 1046,-140.8 1046,-140.8 648.84,-140.8 648.84,-140.8"/>
<polygon fill="black" stroke="black" points="648.84,-137.3 638.84,-140.8 648.84,-144.3 648.84,-137.3"/>
</g>
</g>
</svg>
