<?xml version="1.0" encoding="UTF-8" standalone="no"?>
<!DOCTYPE svg PUBLIC "-//W3C//DTD SVG 1.1//EN"
 "http://www.w3.org/Graphics/SVG/1.1/DTD/svg11.dtd">
<!-- Generated by graphviz version 2.47.3 (20210619.1520)
 -->
<!-- Title: dependencies Pages: 1 -->
<svg width="677pt" height="247pt"
 viewBox="0.00 0.00 677.00 246.80" xmlns="http://www.w3.org/2000/svg" xmlns:xlink="http://www.w3.org/1999/xlink">
<g id="graph0" class="graph" transform="scale(1 1) rotate(0) translate(4 242.8)">
<title>dependencies</title>
<polygon fill="white" stroke="transparent" points="-4,4 -4,-242.8 673,-242.8 673,4 -4,4"/>
<text text-anchor="middle" x="334.5" y="-8.2" font-family="sans-serif" font-size="14.00">dependencies</text>
<g id="clust1" class="cluster">
<title>cluster_AppModule</title>
<polygon fill="none" stroke="black" stroke-dasharray="1,5" points="8,-32.8 8,-230.8 661,-230.8 661,-32.8 8,-32.8"/>
</g>
<g id="clust5" class="cluster">
<title>cluster_AppModule_imports</title>
<polygon fill="none" stroke="black" points="282,-40.8 282,-92.8 653,-92.8 653,-40.8 282,-40.8"/>
</g>
<g id="clust7" class="cluster">
<title>cluster_AppModule_bootstrap</title>
<polygon fill="none" stroke="black" points="277,-170.8 277,-222.8 401,-222.8 401,-170.8 277,-170.8"/>
</g>
<g id="clust2" class="cluster">
<title>cluster_AppModule_declarations</title>
<polygon fill="none" stroke="black" points="16,-40.8 16,-92.8 274,-92.8 274,-40.8 16,-40.8"/>
</g>
<!-- AppComponent -->
<g id="node1" class="node">
<title>AppComponent</title>
<polygon fill="#ffffb3" stroke="black" points="265.94,-84.8 160.06,-84.8 160.06,-48.8 265.94,-48.8 265.94,-84.8"/>
<text text-anchor="middle" x="213" y="-62.6" font-family="Times,serif" font-size="14.00">AppComponent</text>
</g>
<!-- AppModule -->
<g id="node3" class="node">
<title>AppModule</title>
<polygon fill="#8dd3c7" stroke="black" points="380.66,-149.8 377.66,-153.8 356.66,-153.8 353.66,-149.8 297.34,-149.8 297.34,-113.8 380.66,-113.8 380.66,-149.8"/>
<text text-anchor="middle" x="339" y="-127.6" font-family="Times,serif" font-size="14.00">AppModule</text>
</g>
<!-- AppComponent&#45;&gt;AppModule -->
<g id="edge1" class="edge">
<title>AppComponent&#45;&gt;AppModule</title>
<path fill="none" stroke="black" d="M213,-84.82C213,-102.17 213,-125.8 213,-125.8 213,-125.8 287.04,-125.8 287.04,-125.8"/>
<polygon fill="black" stroke="black" points="287.04,-129.3 297.04,-125.8 287.04,-122.3 287.04,-129.3"/>
</g>
<!-- ModalComponent -->
<g id="node2" class="node">
<title>ModalComponent</title>
<polygon fill="#ffffb3" stroke="black" points="141.88,-84.8 24.12,-84.8 24.12,-48.8 141.88,-48.8 141.88,-84.8"/>
<text text-anchor="middle" x="83" y="-62.6" font-family="Times,serif" font-size="14.00">ModalComponent</text>
</g>
<!-- ModalComponent&#45;&gt;AppModule -->
<g id="edge2" class="edge">
<title>ModalComponent&#45;&gt;AppModule</title>
<path fill="none" stroke="black" d="M83,-85.08C83,-106.12 83,-137.8 83,-137.8 83,-137.8 287.3,-137.8 287.3,-137.8"/>
<polygon fill="black" stroke="black" points="287.3,-141.3 297.3,-137.8 287.3,-134.3 287.3,-141.3"/>
</g>
<!-- AppComponent  -->
<g id="node7" class="node">
<title>AppComponent </title>
<polygon fill="#80b1d3" stroke="black" points="393.44,-214.8 284.56,-214.8 284.56,-178.8 393.44,-178.8 393.44,-214.8"/>
<text text-anchor="middle" x="339" y="-192.6" font-family="Times,serif" font-size="14.00">AppComponent </text>
</g>
<!-- AppModule&#45;&gt;AppComponent  -->
<g id="edge6" class="edge">
<title>AppModule&#45;&gt;AppComponent </title>
<path fill="none" stroke="black" stroke-dasharray="1,5" d="M339,-149.91C339,-149.91 339,-168.79 339,-168.79"/>
<polygon fill="black" stroke="black" points="335.5,-168.79 339,-178.79 342.5,-168.79 335.5,-168.79"/>
</g>
<!-- !environment -->
<g id="node4" class="node">
<title>!environment</title>
<polygon fill="#8dd3c7" stroke="black" points="644.92,-84.8 641.92,-88.8 620.92,-88.8 617.92,-84.8 553.08,-84.8 553.08,-48.8 644.92,-48.8 644.92,-84.8"/>
<text text-anchor="middle" x="599" y="-62.6" font-family="Times,serif" font-size="14.00">!environment</text>
</g>
<!-- !environment&#45;&gt;AppModule -->
<g id="edge3" class="edge">
<title>!environment&#45;&gt;AppModule</title>
<path fill="none" stroke="black" d="M599,-85.08C599,-106.12 599,-137.8 599,-137.8 599,-137.8 390.77,-137.8 390.77,-137.8"/>
<polygon fill="black" stroke="black" points="390.77,-134.3 380.77,-137.8 390.77,-141.3 390.77,-134.3"/>
</g>
<!-- AppRoutingModule -->
<g id="node5" class="node">
<title>AppRoutingModule</title>
<polygon fill="#8dd3c7" stroke="black" points="535.27,-84.8 532.27,-88.8 511.27,-88.8 508.27,-84.8 406.73,-84.8 406.73,-48.8 535.27,-48.8 535.27,-84.8"/>
<text text-anchor="middle" x="471" y="-62.6" font-family="Times,serif" font-size="14.00">AppRoutingModule</text>
</g>
<!-- AppRoutingModule&#45;&gt;AppModule -->
<g id="edge4" class="edge">
<title>AppRoutingModule&#45;&gt;AppModule</title>
<path fill="none" stroke="black" d="M471,-84.82C471,-102.17 471,-125.8 471,-125.8 471,-125.8 390.77,-125.8 390.77,-125.8"/>
<polygon fill="black" stroke="black" points="390.77,-122.3 380.77,-125.8 390.77,-129.3 390.77,-122.3"/>
</g>
<!-- SharedModule -->
<g id="node6" class="node">
<title>SharedModule</title>
<polygon fill="#8dd3c7" stroke="black" points="388.42,-84.8 385.42,-88.8 364.42,-88.8 361.42,-84.8 289.58,-84.8 289.58,-48.8 388.42,-48.8 388.42,-84.8"/>
<text text-anchor="middle" x="339" y="-62.6" font-family="Times,serif" font-size="14.00">SharedModule</text>
</g>
<!-- SharedModule&#45;&gt;AppModule -->
<g id="edge5" class="edge">
<title>SharedModule&#45;&gt;AppModule</title>
<path fill="none" stroke="black" d="M339,-84.91C339,-84.91 339,-103.79 339,-103.79"/>
<polygon fill="black" stroke="black" points="335.5,-103.79 339,-113.79 342.5,-103.79 335.5,-103.79"/>
</g>
</g>
</svg>
