<?xml version="1.0" encoding="UTF-8" standalone="no"?>
<!DOCTYPE svg PUBLIC "-//W3C//DTD SVG 1.1//EN"
 "http://www.w3.org/Graphics/SVG/1.1/DTD/svg11.dtd">
<!-- Generated by graphviz version 2.47.3 (20210619.1520)
 -->
<!-- Title: dependencies Pages: 1 -->
<svg width="368pt" height="247pt"
 viewBox="0.00 0.00 368.00 246.80" xmlns="http://www.w3.org/2000/svg" xmlns:xlink="http://www.w3.org/1999/xlink">
<g id="graph0" class="graph" transform="scale(1 1) rotate(0) translate(4 242.8)">
<title>dependencies</title>
<polygon fill="white" stroke="transparent" points="-4,4 -4,-242.8 364,-242.8 364,4 -4,4"/>
<text text-anchor="middle" x="180" y="-8.2" font-family="sans-serif" font-size="14.00">dependencies</text>
<g id="clust1" class="cluster">
<title>cluster_ResponsiveSideNavigationModule</title>
<polygon fill="none" stroke="black" stroke-dasharray="1,5" points="8,-32.8 8,-230.8 352,-230.8 352,-32.8 8,-32.8"/>
</g>
<g id="clust2" class="cluster">
<title>cluster_ResponsiveSideNavigationModule_declarations</title>
<polygon fill="none" stroke="black" points="20,-40.8 20,-92.8 340,-92.8 340,-40.8 20,-40.8"/>
</g>
<g id="clust6" class="cluster">
<title>cluster_ResponsiveSideNavigationModule_exports</title>
<polygon fill="none" stroke="black" points="16,-170.8 16,-222.8 344,-222.8 344,-170.8 16,-170.8"/>
</g>
<!-- FooterComponent -->
<g id="node1" class="node">
<title>FooterComponent</title>
<polygon fill="#ffffb3" stroke="black" points="331.88,-84.8 214.12,-84.8 214.12,-48.8 331.88,-48.8 331.88,-84.8"/>
<text text-anchor="middle" x="273" y="-62.6" font-family="Times,serif" font-size="14.00">FooterComponent</text>
</g>
<!-- ResponsiveSideNavigationModule -->
<g id="node3" class="node">
<title>ResponsiveSideNavigationModule</title>
<polygon fill="#8dd3c7" stroke="black" points="285.69,-149.8 282.69,-153.8 261.69,-153.8 258.69,-149.8 74.31,-149.8 74.31,-113.8 285.69,-113.8 285.69,-149.8"/>
<text text-anchor="middle" x="180" y="-127.6" font-family="Times,serif" font-size="14.00">ResponsiveSideNavigationModule</text>
</g>
<!-- FooterComponent&#45;&gt;ResponsiveSideNavigationModule -->
<g id="edge1" class="edge">
<title>FooterComponent&#45;&gt;ResponsiveSideNavigationModule</title>
<path fill="none" stroke="black" d="M249.83,-84.91C249.83,-84.91 249.83,-103.79 249.83,-103.79"/>
<polygon fill="black" stroke="black" points="246.33,-103.79 249.83,-113.79 253.33,-103.79 246.33,-103.79"/>
</g>
<!-- SideNavigationComponent -->
<g id="node2" class="node">
<title>SideNavigationComponent</title>
<polygon fill="#ffffb3" stroke="black" points="196.43,-84.8 27.57,-84.8 27.57,-48.8 196.43,-48.8 196.43,-84.8"/>
<text text-anchor="middle" x="112" y="-62.6" font-family="Times,serif" font-size="14.00">SideNavigationComponent</text>
</g>
<!-- SideNavigationComponent&#45;&gt;ResponsiveSideNavigationModule -->
<g id="edge2" class="edge">
<title>SideNavigationComponent&#45;&gt;ResponsiveSideNavigationModule</title>
<path fill="none" stroke="black" d="M135.31,-84.91C135.31,-84.91 135.31,-103.79 135.31,-103.79"/>
<polygon fill="black" stroke="black" points="131.81,-103.79 135.31,-113.79 138.81,-103.79 131.81,-103.79"/>
</g>
<!-- FooterComponent  -->
<g id="node4" class="node">
<title>FooterComponent </title>
<polygon fill="#fb8072" stroke="black" points="335.88,-214.8 214.12,-214.8 214.12,-178.8 335.88,-178.8 335.88,-214.8"/>
<text text-anchor="middle" x="275" y="-192.6" font-family="Times,serif" font-size="14.00">FooterComponent </text>
</g>
<!-- ResponsiveSideNavigationModule&#45;&gt;FooterComponent  -->
<g id="edge3" class="edge">
<title>ResponsiveSideNavigationModule&#45;&gt;FooterComponent </title>
<path fill="none" stroke="black" stroke-dasharray="5,2" d="M249.95,-149.91C249.95,-149.91 249.95,-168.79 249.95,-168.79"/>
<polygon fill="black" stroke="black" points="246.45,-168.79 249.95,-178.79 253.45,-168.79 246.45,-168.79"/>
</g>
<!-- SideNavigationComponent  -->
<g id="node5" class="node">
<title>SideNavigationComponent </title>
<polygon fill="#fb8072" stroke="black" points="195.93,-214.8 24.07,-214.8 24.07,-178.8 195.93,-178.8 195.93,-214.8"/>
<text text-anchor="middle" x="110" y="-192.6" font-family="Times,serif" font-size="14.00">SideNavigationComponent </text>
</g>
<!-- ResponsiveSideNavigationModule&#45;&gt;SideNavigationComponent  -->
<g id="edge4" class="edge">
<title>ResponsiveSideNavigationModule&#45;&gt;SideNavigationComponent </title>
<path fill="none" stroke="black" stroke-dasharray="5,2" d="M135.18,-149.91C135.18,-149.91 135.18,-168.79 135.18,-168.79"/>
<polygon fill="black" stroke="black" points="131.68,-168.79 135.18,-178.79 138.68,-168.79 131.68,-168.79"/>
</g>
</g>
</svg>
