<?xml version="1.0" encoding="UTF-8" standalone="no"?>
<!DOCTYPE svg PUBLIC "-//W3C//DTD SVG 1.1//EN"
 "http://www.w3.org/Graphics/SVG/1.1/DTD/svg11.dtd">
<!-- Generated by graphviz version 2.47.3 (20210619.1520)
 -->
<!-- Title: dependencies Pages: 1 -->
<svg width="506pt" height="174pt"
 viewBox="0.00 0.00 506.00 173.80" xmlns="http://www.w3.org/2000/svg" xmlns:xlink="http://www.w3.org/1999/xlink">
<g id="graph0" class="graph" transform="scale(1 1) rotate(0) translate(4 169.8)">
<title>dependencies</title>
<polygon fill="white" stroke="transparent" points="-4,4 -4,-169.8 502,-169.8 502,4 -4,4"/>
<text text-anchor="middle" x="249" y="-8.2" font-family="sans-serif" font-size="14.00">dependencies</text>
<g id="clust1" class="cluster">
<title>cluster_CustomersModule</title>
<polygon fill="none" stroke="black" stroke-dasharray="1,5" points="8,-32.8 8,-157.8 490,-157.8 490,-32.8 8,-32.8"/>
</g>
<g id="clust2" class="cluster">
<title>cluster_CustomersModule_declarations</title>
<polygon fill="none" stroke="black" points="138,-40.8 138,-92.8 482,-92.8 482,-40.8 138,-40.8"/>
</g>
<g id="clust5" class="cluster">
<title>cluster_CustomersModule_imports</title>
<polygon fill="none" stroke="black" points="16,-40.8 16,-92.8 130,-92.8 130,-40.8 16,-40.8"/>
</g>
<!-- CustomersComponent -->
<g id="node1" class="node">
<title>CustomersComponent</title>
<polygon fill="#ffffb3" stroke="black" points="473.71,-84.8 332.29,-84.8 332.29,-48.8 473.71,-48.8 473.71,-84.8"/>
<text text-anchor="middle" x="403" y="-62.6" font-family="Times,serif" font-size="14.00">CustomersComponent</text>
</g>
<!-- CustomersModule -->
<g id="node3" class="node">
<title>CustomersModule</title>
<polygon fill="#8dd3c7" stroke="black" points="289.93,-149.8 286.93,-153.8 265.93,-153.8 262.93,-149.8 170.07,-149.8 170.07,-113.8 289.93,-113.8 289.93,-149.8"/>
<text text-anchor="middle" x="230" y="-127.6" font-family="Times,serif" font-size="14.00">CustomersModule</text>
</g>
<!-- CustomersComponent&#45;&gt;CustomersModule -->
<g id="edge1" class="edge">
<title>CustomersComponent&#45;&gt;CustomersModule</title>
<path fill="none" stroke="black" d="M403,-84.91C403,-104.14 403,-131.8 403,-131.8 403,-131.8 300.02,-131.8 300.02,-131.8"/>
<polygon fill="black" stroke="black" points="300.02,-128.3 290.02,-131.8 300.02,-135.3 300.02,-128.3"/>
</g>
<!-- CustomersPageComponent -->
<g id="node2" class="node">
<title>CustomersPageComponent</title>
<polygon fill="#ffffb3" stroke="black" points="314.43,-84.8 145.57,-84.8 145.57,-48.8 314.43,-48.8 314.43,-84.8"/>
<text text-anchor="middle" x="230" y="-62.6" font-family="Times,serif" font-size="14.00">CustomersPageComponent</text>
</g>
<!-- CustomersPageComponent&#45;&gt;CustomersModule -->
<g id="edge2" class="edge">
<title>CustomersPageComponent&#45;&gt;CustomersModule</title>
<path fill="none" stroke="black" d="M230,-84.91C230,-84.91 230,-103.79 230,-103.79"/>
<polygon fill="black" stroke="black" points="226.5,-103.79 230,-113.79 233.5,-103.79 226.5,-103.79"/>
</g>
<!-- SharedModule -->
<g id="node4" class="node">
<title>SharedModule</title>
<polygon fill="#8dd3c7" stroke="black" points="122.42,-84.8 119.42,-88.8 98.42,-88.8 95.42,-84.8 23.58,-84.8 23.58,-48.8 122.42,-48.8 122.42,-84.8"/>
<text text-anchor="middle" x="73" y="-62.6" font-family="Times,serif" font-size="14.00">SharedModule</text>
</g>
<!-- SharedModule&#45;&gt;CustomersModule -->
<g id="edge3" class="edge">
<title>SharedModule&#45;&gt;CustomersModule</title>
<path fill="none" stroke="black" d="M73,-84.91C73,-104.14 73,-131.8 73,-131.8 73,-131.8 160.2,-131.8 160.2,-131.8"/>
<polygon fill="black" stroke="black" points="160.2,-135.3 170.2,-131.8 160.2,-128.3 160.2,-135.3"/>
</g>
</g>
</svg>
