<?xml version="1.0" encoding="UTF-8" standalone="no"?>
<!DOCTYPE svg PUBLIC "-//W3C//DTD SVG 1.1//EN"
 "http://www.w3.org/Graphics/SVG/1.1/DTD/svg11.dtd">
<!-- Generated by graphviz version 2.47.3 (20210619.1520)
 -->
<!-- Title: dependencies Pages: 1 -->
<svg width="2448pt" height="456pt"
 viewBox="0.00 0.00 2448.00 455.80" xmlns="http://www.w3.org/2000/svg" xmlns:xlink="http://www.w3.org/1999/xlink">
<g id="graph0" class="graph" transform="scale(1 1) rotate(0) translate(4 451.8)">
<title>dependencies</title>
<polygon fill="white" stroke="transparent" points="-4,4 -4,-451.8 2444,-451.8 2444,4 -4,4"/>
<text text-anchor="middle" x="1220" y="-8.2" font-family="sans-serif" font-size="14.00">dependencies</text>
<g id="clust1" class="cluster">
<title>cluster_AccountsModule</title>
<polygon fill="none" stroke="black" stroke-dasharray="1,5" points="8,-165.8 8,-301.8 368,-301.8 368,-165.8 8,-165.8"/>
</g>
<g id="clust2" class="cluster">
<title>cluster_AccountsModule_declarations</title>
<polygon fill="none" stroke="black" points="16,-173.8 16,-225.8 360,-225.8 360,-173.8 16,-173.8"/>
</g>
<g id="clust15" class="cluster">
<title>cluster_AppModule</title>
<polygon fill="none" stroke="black" stroke-dasharray="1,5" points="376,-165.8 376,-439.8 1343,-439.8 1343,-165.8 376,-165.8"/>
</g>
<g id="clust16" class="cluster">
<title>cluster_AppModule_declarations</title>
<polygon fill="none" stroke="black" points="882,-249.8 882,-301.8 1335,-301.8 1335,-249.8 882,-249.8"/>
</g>
<g id="clust20" class="cluster">
<title>cluster_AppModule_imports</title>
<polygon fill="none" stroke="black" points="508,-173.8 508,-301.8 874,-301.8 874,-173.8 508,-173.8"/>
</g>
<g id="clust22" class="cluster">
<title>cluster_AppModule_bootstrap</title>
<polygon fill="none" stroke="black" points="699,-379.8 699,-431.8 823,-431.8 823,-379.8 699,-379.8"/>
</g>
<g id="clust23" class="cluster">
<title>cluster_AppModule_providers</title>
<polygon fill="none" stroke="black" points="384,-249.8 384,-301.8 500,-301.8 500,-249.8 384,-249.8"/>
</g>
<g id="clust50" class="cluster">
<title>cluster_ModalModule</title>
<polygon fill="none" stroke="black" stroke-dasharray="1,5" points="742,-32.8 742,-157.8 892,-157.8 892,-32.8 742,-32.8"/>
</g>
<g id="clust51" class="cluster">
<title>cluster_ModalModule_declarations</title>
<polygon fill="none" stroke="black" points="750,-40.8 750,-92.8 884,-92.8 884,-40.8 750,-40.8"/>
</g>
<g id="clust57" class="cluster">
<title>cluster_ResponsiveSideNavigationModule</title>
<polygon fill="none" stroke="black" stroke-dasharray="1,5" points="1351,-32.8 1351,-233.8 1695,-233.8 1695,-32.8 1351,-32.8"/>
</g>
<g id="clust58" class="cluster">
<title>cluster_ResponsiveSideNavigationModule_declarations</title>
<polygon fill="none" stroke="black" points="1363,-40.8 1363,-92.8 1683,-92.8 1683,-40.8 1363,-40.8"/>
</g>
<g id="clust62" class="cluster">
<title>cluster_ResponsiveSideNavigationModule_exports</title>
<polygon fill="none" stroke="black" points="1359,-173.8 1359,-225.8 1687,-225.8 1687,-173.8 1359,-173.8"/>
</g>
<g id="clust65" class="cluster">
<title>cluster_SharedModule</title>
<polygon fill="none" stroke="black" stroke-dasharray="1,5" points="1351,-241.8 1351,-309.8 2432,-309.8 2432,-241.8 1351,-241.8"/>
</g>
<g id="clust66" class="cluster">
<title>cluster_SharedModule_declarations</title>
<polygon fill="none" stroke="black" points="2074,-249.8 2074,-301.8 2424,-301.8 2424,-249.8 2074,-249.8"/>
</g>
<g id="clust70" class="cluster">
<title>cluster_SharedModule_exports</title>
<polygon fill="none" stroke="black" points="1359,-249.8 1359,-301.8 2066,-301.8 2066,-249.8 1359,-249.8"/>
</g>
<!-- CustomersComponent -->
<g id="node1" class="node">
<title>CustomersComponent</title>
<polygon fill="#ffffb3" stroke="black" points="351.71,-217.8 210.29,-217.8 210.29,-181.8 351.71,-181.8 351.71,-217.8"/>
<text text-anchor="middle" x="281" y="-195.6" font-family="Times,serif" font-size="14.00">CustomersComponent</text>
</g>
<!-- AccountsModule -->
<g id="node3" class="node">
<title>AccountsModule</title>
<polygon fill="#8dd3c7" stroke="black" points="250.42,-293.8 247.42,-297.8 226.42,-297.8 223.42,-293.8 137.58,-293.8 137.58,-257.8 250.42,-257.8 250.42,-293.8"/>
<text text-anchor="middle" x="194" y="-271.6" font-family="Times,serif" font-size="14.00">AccountsModule</text>
</g>
<!-- CustomersComponent&#45;&gt;AccountsModule -->
<g id="edge1" class="edge">
<title>CustomersComponent&#45;&gt;AccountsModule</title>
<path fill="none" stroke="black" d="M230.3,-217.81C230.3,-217.81 230.3,-247.65 230.3,-247.65"/>
<polygon fill="black" stroke="black" points="226.8,-247.65 230.3,-257.65 233.8,-247.65 226.8,-247.65"/>
</g>
<!-- CustomersModule -->
<g id="node10" class="node">
<title>CustomersModule</title>
<polygon fill="#8dd3c7" stroke="black" points="666.93,-293.8 663.93,-297.8 642.93,-297.8 639.93,-293.8 547.07,-293.8 547.07,-257.8 666.93,-257.8 666.93,-293.8"/>
<text text-anchor="middle" x="607" y="-271.6" font-family="Times,serif" font-size="14.00">CustomersModule</text>
</g>
<!-- CustomersComponent&#45;&gt;CustomersModule -->
<g id="edge12" class="edge">
<title>CustomersComponent&#45;&gt;CustomersModule</title>
<path fill="none" stroke="black" d="M351.84,-199.8C417.11,-199.8 503.91,-199.8 503.91,-199.8 503.91,-199.8 503.91,-275.8 503.91,-275.8 503.91,-275.8 537.03,-275.8 537.03,-275.8"/>
<polygon fill="black" stroke="black" points="537.03,-279.3 547.03,-275.8 537.03,-272.3 537.03,-279.3"/>
</g>
<!-- CustomersPageComponent -->
<g id="node2" class="node">
<title>CustomersPageComponent</title>
<polygon fill="#ffffb3" stroke="black" points="192.43,-217.8 23.57,-217.8 23.57,-181.8 192.43,-181.8 192.43,-217.8"/>
<text text-anchor="middle" x="108" y="-195.6" font-family="Times,serif" font-size="14.00">CustomersPageComponent</text>
</g>
<!-- CustomersPageComponent&#45;&gt;AccountsModule -->
<g id="edge2" class="edge">
<title>CustomersPageComponent&#45;&gt;AccountsModule</title>
<path fill="none" stroke="black" d="M155.93,-217.81C155.93,-217.81 155.93,-247.65 155.93,-247.65"/>
<polygon fill="black" stroke="black" points="152.43,-247.65 155.93,-257.65 159.43,-247.65 152.43,-247.65"/>
</g>
<!-- CustomersPageComponent&#45;&gt;CustomersModule -->
<g id="edge13" class="edge">
<title>CustomersPageComponent&#45;&gt;CustomersModule</title>
<path fill="none" stroke="black" d="M174.07,-218.04C174.07,-233.37 174.07,-252.8 174.07,-252.8 174.07,-252.8 595.84,-252.8 595.84,-252.8 595.84,-252.8 595.84,-253.29 595.84,-253.29"/>
<polygon fill="black" stroke="black" points="592.34,-247.68 595.84,-257.68 599.34,-247.68 592.34,-247.68"/>
</g>
<!-- AccountsComponent -->
<g id="node4" class="node">
<title>AccountsComponent</title>
<polygon fill="#ffffb3" stroke="black" points="1327.2,-293.8 1192.8,-293.8 1192.8,-257.8 1327.2,-257.8 1327.2,-293.8"/>
<text text-anchor="middle" x="1260" y="-271.6" font-family="Times,serif" font-size="14.00">AccountsComponent</text>
</g>
<!-- AppModule -->
<g id="node7" class="node">
<title>AppModule</title>
<polygon fill="#8dd3c7" stroke="black" points="802.66,-358.8 799.66,-362.8 778.66,-362.8 775.66,-358.8 719.34,-358.8 719.34,-322.8 802.66,-322.8 802.66,-358.8"/>
<text text-anchor="middle" x="761" y="-336.6" font-family="Times,serif" font-size="14.00">AppModule</text>
</g>
<!-- AccountsComponent&#45;&gt;AppModule -->
<g id="edge3" class="edge">
<title>AccountsComponent&#45;&gt;AppModule</title>
<path fill="none" stroke="black" d="M1260,-294.08C1260,-315.12 1260,-346.8 1260,-346.8 1260,-346.8 812.69,-346.8 812.69,-346.8"/>
<polygon fill="black" stroke="black" points="812.69,-343.3 802.69,-346.8 812.69,-350.3 812.69,-343.3"/>
</g>
<!-- AccountsPageComponent -->
<g id="node5" class="node">
<title>AccountsPageComponent</title>
<polygon fill="#ffffb3" stroke="black" points="1174.92,-293.8 1013.08,-293.8 1013.08,-257.8 1174.92,-257.8 1174.92,-293.8"/>
<text text-anchor="middle" x="1094" y="-271.6" font-family="Times,serif" font-size="14.00">AccountsPageComponent</text>
</g>
<!-- AccountsPageComponent&#45;&gt;AppModule -->
<g id="edge4" class="edge">
<title>AccountsPageComponent&#45;&gt;AppModule</title>
<path fill="none" stroke="black" d="M1094,-293.82C1094,-311.17 1094,-334.8 1094,-334.8 1094,-334.8 812.84,-334.8 812.84,-334.8"/>
<polygon fill="black" stroke="black" points="812.84,-331.3 802.84,-334.8 812.84,-338.3 812.84,-331.3"/>
</g>
<!-- AppComponent -->
<g id="node6" class="node">
<title>AppComponent</title>
<polygon fill="#ffffb3" stroke="black" points="995.94,-293.8 890.06,-293.8 890.06,-257.8 995.94,-257.8 995.94,-293.8"/>
<text text-anchor="middle" x="943" y="-271.6" font-family="Times,serif" font-size="14.00">AppComponent</text>
</g>
<!-- AppComponent&#45;&gt;AppModule -->
<g id="edge5" class="edge">
<title>AppComponent&#45;&gt;AppModule</title>
<path fill="none" stroke="black" d="M890.07,-275.8C847.27,-275.8 794.07,-275.8 794.07,-275.8 794.07,-275.8 794.07,-312.69 794.07,-312.69"/>
<polygon fill="black" stroke="black" points="790.57,-312.69 794.07,-322.69 797.57,-312.69 790.57,-312.69"/>
</g>
<!-- AppComponent  -->
<g id="node12" class="node">
<title>AppComponent </title>
<polygon fill="#80b1d3" stroke="black" points="815.44,-423.8 706.56,-423.8 706.56,-387.8 815.44,-387.8 815.44,-423.8"/>
<text text-anchor="middle" x="761" y="-401.6" font-family="Times,serif" font-size="14.00">AppComponent </text>
</g>
<!-- AppModule&#45;&gt;AppComponent  -->
<g id="edge10" class="edge">
<title>AppModule&#45;&gt;AppComponent </title>
<path fill="none" stroke="black" stroke-dasharray="1,5" d="M761,-358.91C761,-358.91 761,-377.79 761,-377.79"/>
<polygon fill="black" stroke="black" points="757.5,-377.79 761,-387.79 764.5,-377.79 757.5,-377.79"/>
</g>
<!-- AppRoutingModule -->
<g id="node8" class="node">
<title>AppRoutingModule</title>
<polygon fill="#8dd3c7" stroke="black" points="644.27,-217.8 641.27,-221.8 620.27,-221.8 617.27,-217.8 515.73,-217.8 515.73,-181.8 644.27,-181.8 644.27,-217.8"/>
<text text-anchor="middle" x="580" y="-195.6" font-family="Times,serif" font-size="14.00">AppRoutingModule</text>
</g>
<!-- AppRoutingModule&#45;&gt;AppModule -->
<g id="edge6" class="edge">
<title>AppRoutingModule&#45;&gt;AppModule</title>
<path fill="none" stroke="black" d="M531.45,-218.01C531.45,-254.86 531.45,-334.8 531.45,-334.8 531.45,-334.8 709.16,-334.8 709.16,-334.8"/>
<polygon fill="black" stroke="black" points="709.16,-338.3 719.16,-334.8 709.16,-331.3 709.16,-338.3"/>
</g>
<!-- CoreModule -->
<g id="node9" class="node">
<title>CoreModule</title>
<polygon fill="#8dd3c7" stroke="black" points="749.26,-217.8 746.26,-221.8 725.26,-221.8 722.26,-217.8 662.74,-217.8 662.74,-181.8 749.26,-181.8 749.26,-217.8"/>
<text text-anchor="middle" x="706" y="-195.6" font-family="Times,serif" font-size="14.00">CoreModule</text>
</g>
<!-- CoreModule&#45;&gt;AppModule -->
<g id="edge7" class="edge">
<title>CoreModule&#45;&gt;AppModule</title>
<path fill="none" stroke="black" d="M739.31,-217.94C739.31,-217.94 739.31,-312.73 739.31,-312.73"/>
<polygon fill="black" stroke="black" points="735.81,-312.72 739.31,-322.73 742.81,-312.73 735.81,-312.72"/>
</g>
<!-- CustomersModule&#45;&gt;AppModule -->
<g id="edge8" class="edge">
<title>CustomersModule&#45;&gt;AppModule</title>
<path fill="none" stroke="black" d="M667.05,-284.8C697.96,-284.8 729.24,-284.8 729.24,-284.8 729.24,-284.8 729.24,-312.77 729.24,-312.77"/>
<polygon fill="black" stroke="black" points="725.74,-312.77 729.24,-322.77 732.74,-312.77 725.74,-312.77"/>
</g>
<!-- SharedModule -->
<g id="node11" class="node">
<title>SharedModule</title>
<polygon fill="#8dd3c7" stroke="black" points="866.42,-217.8 863.42,-221.8 842.42,-221.8 839.42,-217.8 767.58,-217.8 767.58,-181.8 866.42,-181.8 866.42,-217.8"/>
<text text-anchor="middle" x="817" y="-195.6" font-family="Times,serif" font-size="14.00">SharedModule</text>
</g>
<!-- SharedModule&#45;&gt;AppModule -->
<g id="edge9" class="edge">
<title>SharedModule&#45;&gt;AppModule</title>
<path fill="none" stroke="black" d="M785.31,-217.94C785.31,-217.94 785.31,-312.73 785.31,-312.73"/>
<polygon fill="black" stroke="black" points="781.81,-312.72 785.31,-322.73 788.81,-312.73 781.81,-312.72"/>
</g>
<!-- SharedModule&#45;&gt;CustomersModule -->
<g id="edge14" class="edge">
<title>SharedModule&#45;&gt;CustomersModule</title>
<path fill="none" stroke="black" d="M776.55,-218.11C776.55,-237.95 776.55,-266.8 776.55,-266.8 776.55,-266.8 676.78,-266.8 676.78,-266.8"/>
<polygon fill="black" stroke="black" points="676.78,-263.3 666.78,-266.8 676.78,-270.3 676.78,-263.3"/>
</g>
<!-- EditCellComponent  -->
<g id="node23" class="node">
<title>EditCellComponent </title>
<polygon fill="#fb8072" stroke="black" points="1617,-293.8 1485,-293.8 1485,-257.8 1617,-257.8 1617,-293.8"/>
<text text-anchor="middle" x="1551" y="-271.6" font-family="Times,serif" font-size="14.00">EditCellComponent </text>
</g>
<!-- SharedModule&#45;&gt;EditCellComponent  -->
<g id="edge24" class="edge">
<title>SharedModule&#45;&gt;EditCellComponent </title>
<path fill="none" stroke="black" stroke-dasharray="5,2" d="M840.84,-217.84C840.84,-231.09 840.84,-246.8 840.84,-246.8 840.84,-246.8 1512.11,-246.8 1512.11,-246.8 1512.11,-246.8 1512.11,-247.88 1512.11,-247.88"/>
<polygon fill="black" stroke="black" points="1508.61,-247.6 1512.11,-257.6 1515.61,-247.6 1508.61,-247.6"/>
</g>
<!-- ModalModule  -->
<g id="node24" class="node">
<title>ModalModule </title>
<polygon fill="#fb8072" stroke="black" points="1466.6,-293.8 1367.4,-293.8 1367.4,-257.8 1466.6,-257.8 1466.6,-293.8"/>
<text text-anchor="middle" x="1417" y="-271.6" font-family="Times,serif" font-size="14.00">ModalModule </text>
</g>
<!-- SharedModule&#45;&gt;ModalModule  -->
<g id="edge25" class="edge">
<title>SharedModule&#45;&gt;ModalModule </title>
<path fill="none" stroke="black" stroke-dasharray="5,2" d="M866.55,-205.8C1001.32,-205.8 1364.49,-205.8 1364.49,-205.8 1364.49,-205.8 1364.49,-275.8 1364.49,-275.8 1364.49,-275.8 1364.77,-275.8 1364.77,-275.8"/>
<polygon fill="black" stroke="black" points="1357.32,-279.3 1367.32,-275.8 1357.32,-272.3 1357.32,-279.3"/>
</g>
<!-- ResponsiveSideNavigationModule  -->
<g id="node25" class="node">
<title>ResponsiveSideNavigationModule </title>
<polygon fill="#fb8072" stroke="black" points="2058.19,-293.8 1843.81,-293.8 1843.81,-257.8 2058.19,-257.8 2058.19,-293.8"/>
<text text-anchor="middle" x="1951" y="-271.6" font-family="Times,serif" font-size="14.00">ResponsiveSideNavigationModule </text>
</g>
<!-- SharedModule&#45;&gt;ResponsiveSideNavigationModule  -->
<g id="edge26" class="edge">
<title>SharedModule&#45;&gt;ResponsiveSideNavigationModule </title>
<path fill="none" stroke="black" stroke-dasharray="5,2" d="M857.75,-218.22C857.75,-227.08 857.75,-235.8 857.75,-235.8 857.75,-235.8 1951,-235.8 1951,-235.8 1951,-235.8 1951,-247.67 1951,-247.67"/>
<polygon fill="black" stroke="black" points="1947.5,-247.67 1951,-257.67 1954.5,-247.67 1947.5,-247.67"/>
</g>
<!-- TableWithEditCellComponent  -->
<g id="node26" class="node">
<title>TableWithEditCellComponent </title>
<polygon fill="#fb8072" stroke="black" points="1825.87,-293.8 1634.13,-293.8 1634.13,-257.8 1825.87,-257.8 1825.87,-293.8"/>
<text text-anchor="middle" x="1730" y="-271.6" font-family="Times,serif" font-size="14.00">TableWithEditCellComponent </text>
</g>
<!-- SharedModule&#45;&gt;TableWithEditCellComponent  -->
<g id="edge27" class="edge">
<title>SharedModule&#45;&gt;TableWithEditCellComponent </title>
<path fill="none" stroke="black" stroke-dasharray="5,2" d="M849.3,-217.9C849.3,-228.89 849.3,-240.8 849.3,-240.8 849.3,-240.8 1656.5,-240.8 1656.5,-240.8 1656.5,-240.8 1656.5,-247.48 1656.5,-247.48"/>
<polygon fill="black" stroke="black" points="1653,-247.48 1656.5,-257.48 1660,-247.48 1653,-247.48"/>
</g>
<!-- Endpoints -->
<g id="node13" class="node">
<title>Endpoints</title>
<ellipse fill="#fdb462" stroke="black" cx="442" cy="-275.8" rx="50.4" ry="18"/>
<text text-anchor="middle" x="442" y="-271.6" font-family="Times,serif" font-size="14.00">Endpoints</text>
</g>
<!-- Endpoints&#45;&gt;AppModule -->
<g id="edge11" class="edge">
<title>Endpoints&#45;&gt;AppModule</title>
<path fill="none" stroke="black" d="M442,-294.08C442,-315.12 442,-346.8 442,-346.8 442,-346.8 709.3,-346.8 709.3,-346.8"/>
<polygon fill="black" stroke="black" points="709.3,-350.3 719.3,-346.8 709.3,-343.3 709.3,-350.3"/>
</g>
<!-- ModalComponent -->
<g id="node14" class="node">
<title>ModalComponent</title>
<polygon fill="#ffffb3" stroke="black" points="875.88,-84.8 758.12,-84.8 758.12,-48.8 875.88,-48.8 875.88,-84.8"/>
<text text-anchor="middle" x="817" y="-62.6" font-family="Times,serif" font-size="14.00">ModalComponent</text>
</g>
<!-- ModalModule -->
<g id="node15" class="node">
<title>ModalModule</title>
<polygon fill="#8dd3c7" stroke="black" points="865.1,-149.8 862.1,-153.8 841.1,-153.8 838.1,-149.8 768.9,-149.8 768.9,-113.8 865.1,-113.8 865.1,-149.8"/>
<text text-anchor="middle" x="817" y="-127.6" font-family="Times,serif" font-size="14.00">ModalModule</text>
</g>
<!-- ModalComponent&#45;&gt;ModalModule -->
<g id="edge15" class="edge">
<title>ModalComponent&#45;&gt;ModalModule</title>
<path fill="none" stroke="black" d="M817,-84.91C817,-84.91 817,-103.79 817,-103.79"/>
<polygon fill="black" stroke="black" points="813.5,-103.79 817,-113.79 820.5,-103.79 813.5,-103.79"/>
</g>
<!-- ModalModule&#45;&gt;SharedModule -->
<g id="edge22" class="edge">
<title>ModalModule&#45;&gt;SharedModule</title>
<path fill="none" stroke="black" d="M817,-150.02C817,-150.02 817,-171.53 817,-171.53"/>
<polygon fill="black" stroke="black" points="813.5,-171.53 817,-181.53 820.5,-171.53 813.5,-171.53"/>
</g>
<!-- FooterComponent -->
<g id="node16" class="node">
<title>FooterComponent</title>
<polygon fill="#ffffb3" stroke="black" points="1674.88,-84.8 1557.12,-84.8 1557.12,-48.8 1674.88,-48.8 1674.88,-84.8"/>
<text text-anchor="middle" x="1616" y="-62.6" font-family="Times,serif" font-size="14.00">FooterComponent</text>
</g>
<!-- ResponsiveSideNavigationModule -->
<g id="node18" class="node">
<title>ResponsiveSideNavigationModule</title>
<polygon fill="#8dd3c7" stroke="black" points="1570.69,-149.8 1567.69,-153.8 1546.69,-153.8 1543.69,-149.8 1359.31,-149.8 1359.31,-113.8 1570.69,-113.8 1570.69,-149.8"/>
<text text-anchor="middle" x="1465" y="-127.6" font-family="Times,serif" font-size="14.00">ResponsiveSideNavigationModule</text>
</g>
<!-- FooterComponent&#45;&gt;ResponsiveSideNavigationModule -->
<g id="edge16" class="edge">
<title>FooterComponent&#45;&gt;ResponsiveSideNavigationModule</title>
<path fill="none" stroke="black" d="M1563.83,-84.91C1563.83,-84.91 1563.83,-103.79 1563.83,-103.79"/>
<polygon fill="black" stroke="black" points="1560.33,-103.79 1563.83,-113.79 1567.33,-103.79 1560.33,-103.79"/>
</g>
<!-- SideNavigationComponent -->
<g id="node17" class="node">
<title>SideNavigationComponent</title>
<polygon fill="#ffffb3" stroke="black" points="1539.43,-84.8 1370.57,-84.8 1370.57,-48.8 1539.43,-48.8 1539.43,-84.8"/>
<text text-anchor="middle" x="1455" y="-62.6" font-family="Times,serif" font-size="14.00">SideNavigationComponent</text>
</g>
<!-- SideNavigationComponent&#45;&gt;ResponsiveSideNavigationModule -->
<g id="edge17" class="edge">
<title>SideNavigationComponent&#45;&gt;ResponsiveSideNavigationModule</title>
<path fill="none" stroke="black" d="M1455,-84.91C1455,-84.91 1455,-103.79 1455,-103.79"/>
<polygon fill="black" stroke="black" points="1451.5,-103.79 1455,-113.79 1458.5,-103.79 1451.5,-103.79"/>
</g>
<!-- ResponsiveSideNavigationModule&#45;&gt;SharedModule -->
<g id="edge23" class="edge">
<title>ResponsiveSideNavigationModule&#45;&gt;SharedModule</title>
<path fill="none" stroke="black" d="M1361.95,-150.07C1361.95,-168.36 1361.95,-193.8 1361.95,-193.8 1361.95,-193.8 876.32,-193.8 876.32,-193.8"/>
<polygon fill="black" stroke="black" points="876.32,-190.3 866.32,-193.8 876.32,-197.3 876.32,-190.3"/>
</g>
<!-- FooterComponent  -->
<g id="node19" class="node">
<title>FooterComponent </title>
<polygon fill="#fb8072" stroke="black" points="1678.88,-217.8 1557.12,-217.8 1557.12,-181.8 1678.88,-181.8 1678.88,-217.8"/>
<text text-anchor="middle" x="1618" y="-195.6" font-family="Times,serif" font-size="14.00">FooterComponent </text>
</g>
<!-- ResponsiveSideNavigationModule&#45;&gt;FooterComponent  -->
<g id="edge18" class="edge">
<title>ResponsiveSideNavigationModule&#45;&gt;FooterComponent </title>
<path fill="none" stroke="black" stroke-dasharray="5,2" d="M1563.95,-150.02C1563.95,-150.02 1563.95,-171.53 1563.95,-171.53"/>
<polygon fill="black" stroke="black" points="1560.45,-171.53 1563.95,-181.53 1567.45,-171.53 1560.45,-171.53"/>
</g>
<!-- SideNavigationComponent  -->
<g id="node20" class="node">
<title>SideNavigationComponent </title>
<polygon fill="#fb8072" stroke="black" points="1538.93,-217.8 1367.07,-217.8 1367.07,-181.8 1538.93,-181.8 1538.93,-217.8"/>
<text text-anchor="middle" x="1453" y="-195.6" font-family="Times,serif" font-size="14.00">SideNavigationComponent </text>
</g>
<!-- ResponsiveSideNavigationModule&#45;&gt;SideNavigationComponent  -->
<g id="edge19" class="edge">
<title>ResponsiveSideNavigationModule&#45;&gt;SideNavigationComponent </title>
<path fill="none" stroke="black" stroke-dasharray="5,2" d="M1453,-150.02C1453,-150.02 1453,-171.53 1453,-171.53"/>
<polygon fill="black" stroke="black" points="1449.5,-171.53 1453,-181.53 1456.5,-171.53 1449.5,-171.53"/>
</g>
<!-- EditCellComponent -->
<g id="node21" class="node">
<title>EditCellComponent</title>
<polygon fill="#ffffb3" stroke="black" points="2416,-293.8 2288,-293.8 2288,-257.8 2416,-257.8 2416,-293.8"/>
<text text-anchor="middle" x="2352" y="-271.6" font-family="Times,serif" font-size="14.00">EditCellComponent</text>
</g>
<!-- EditCellComponent&#45;&gt;SharedModule -->
<g id="edge20" class="edge">
<title>EditCellComponent&#45;&gt;SharedModule</title>
<path fill="none" stroke="black" d="M2352,-257.61C2352,-242.62 2352,-223.8 2352,-223.8 2352,-223.8 832.38,-223.8 832.38,-223.8 832.38,-223.8 832.38,-223.22 832.38,-223.22"/>
<polygon fill="black" stroke="black" points="835.88,-227.99 832.38,-217.99 828.88,-227.99 835.88,-227.99"/>
</g>
<!-- TableWithEditCellComponent -->
<g id="node22" class="node">
<title>TableWithEditCellComponent</title>
<polygon fill="#ffffb3" stroke="black" points="2269.87,-293.8 2082.13,-293.8 2082.13,-257.8 2269.87,-257.8 2269.87,-293.8"/>
<text text-anchor="middle" x="2176" y="-271.6" font-family="Times,serif" font-size="14.00">TableWithEditCellComponent</text>
</g>
<!-- TableWithEditCellComponent&#45;&gt;SharedModule -->
<g id="edge21" class="edge">
<title>TableWithEditCellComponent&#45;&gt;SharedModule</title>
<path fill="none" stroke="black" d="M2176,-257.62C2176,-244.76 2176,-229.8 2176,-229.8 2176,-229.8 823.93,-229.8 823.93,-229.8 823.93,-229.8 823.93,-227.94 823.93,-227.94"/>
<polygon fill="black" stroke="black" points="827.43,-227.94 823.93,-217.94 820.43,-227.94 827.43,-227.94"/>
</g>
</g>
</svg>
