<?xml version="1.0" encoding="UTF-8" standalone="no"?>
<!DOCTYPE svg PUBLIC "-//W3C//DTD SVG 1.1//EN"
 "http://www.w3.org/Graphics/SVG/1.1/DTD/svg11.dtd">
<!-- Generated by graphviz version 2.47.3 (20210619.1520)
 -->
<!-- Title: dependencies Pages: 1 -->
<svg width="998pt" height="323pt"
 viewBox="0.00 0.00 998.00 322.80" xmlns="http://www.w3.org/2000/svg" xmlns:xlink="http://www.w3.org/1999/xlink">
<g id="graph0" class="graph" transform="scale(1 1) rotate(0) translate(4 318.8)">
<title>dependencies</title>
<polygon fill="white" stroke="transparent" points="-4,4 -4,-318.8 994,-318.8 994,4 -4,4"/>
<text text-anchor="middle" x="495" y="-8.2" font-family="sans-serif" font-size="14.00">dependencies</text>
<g id="clust1" class="cluster">
<title>cluster_AppModule</title>
<polygon fill="none" stroke="black" stroke-dasharray="1,5" points="141,-108.8 141,-306.8 794,-306.8 794,-108.8 141,-108.8"/>
</g>
<g id="clust2" class="cluster">
<title>cluster_AppModule_declarations</title>
<polygon fill="none" stroke="black" points="528,-116.8 528,-168.8 786,-168.8 786,-116.8 528,-116.8"/>
</g>
<g id="clust5" class="cluster">
<title>cluster_AppModule_imports</title>
<polygon fill="none" stroke="black" points="149,-116.8 149,-168.8 520,-168.8 520,-116.8 149,-116.8"/>
</g>
<g id="clust7" class="cluster">
<title>cluster_AppModule_bootstrap</title>
<polygon fill="none" stroke="black" points="404,-246.8 404,-298.8 528,-298.8 528,-246.8 404,-246.8"/>
</g>
<g id="clust21" class="cluster">
<title>cluster_ReservationsModule</title>
<polygon fill="none" stroke="black" stroke-dasharray="1,5" points="802,-32.8 802,-168.8 982,-168.8 982,-32.8 802,-32.8"/>
</g>
<g id="clust22" class="cluster">
<title>cluster_ReservationsModule_declarations</title>
<polygon fill="none" stroke="black" points="810,-40.8 810,-92.8 974,-92.8 974,-40.8 810,-40.8"/>
</g>
<g id="clust34" class="cluster">
<title>cluster_SharedModule</title>
<polygon fill="none" stroke="black" stroke-dasharray="1,5" points="8,-32.8 8,-100.8 374,-100.8 374,-32.8 8,-32.8"/>
</g>
<g id="clust35" class="cluster">
<title>cluster_SharedModule_declarations</title>
<polygon fill="none" stroke="black" points="16,-40.8 16,-92.8 366,-92.8 366,-40.8 16,-40.8"/>
</g>
<!-- AppComponent -->
<g id="node1" class="node">
<title>AppComponent</title>
<polygon fill="#ffffb3" stroke="black" points="777.94,-160.8 672.06,-160.8 672.06,-124.8 777.94,-124.8 777.94,-160.8"/>
<text text-anchor="middle" x="725" y="-138.6" font-family="Times,serif" font-size="14.00">AppComponent</text>
</g>
<!-- AppModule -->
<g id="node3" class="node">
<title>AppModule</title>
<polygon fill="#8dd3c7" stroke="black" points="507.66,-225.8 504.66,-229.8 483.66,-229.8 480.66,-225.8 424.34,-225.8 424.34,-189.8 507.66,-189.8 507.66,-225.8"/>
<text text-anchor="middle" x="466" y="-203.6" font-family="Times,serif" font-size="14.00">AppModule</text>
</g>
<!-- AppComponent&#45;&gt;AppModule -->
<g id="edge1" class="edge">
<title>AppComponent&#45;&gt;AppModule</title>
<path fill="none" stroke="black" d="M725,-161.08C725,-182.12 725,-213.8 725,-213.8 725,-213.8 517.9,-213.8 517.9,-213.8"/>
<polygon fill="black" stroke="black" points="517.9,-210.3 507.9,-213.8 517.9,-217.3 517.9,-210.3"/>
</g>
<!-- ModalComponent -->
<g id="node2" class="node">
<title>ModalComponent</title>
<polygon fill="#ffffb3" stroke="black" points="653.88,-160.8 536.12,-160.8 536.12,-124.8 653.88,-124.8 653.88,-160.8"/>
<text text-anchor="middle" x="595" y="-138.6" font-family="Times,serif" font-size="14.00">ModalComponent</text>
</g>
<!-- ModalComponent&#45;&gt;AppModule -->
<g id="edge2" class="edge">
<title>ModalComponent&#45;&gt;AppModule</title>
<path fill="none" stroke="black" d="M595,-160.82C595,-178.17 595,-201.8 595,-201.8 595,-201.8 517.88,-201.8 517.88,-201.8"/>
<polygon fill="black" stroke="black" points="517.88,-198.3 507.88,-201.8 517.88,-205.3 517.88,-198.3"/>
</g>
<!-- AppComponent  -->
<g id="node7" class="node">
<title>AppComponent </title>
<polygon fill="#80b1d3" stroke="black" points="520.44,-290.8 411.56,-290.8 411.56,-254.8 520.44,-254.8 520.44,-290.8"/>
<text text-anchor="middle" x="466" y="-268.6" font-family="Times,serif" font-size="14.00">AppComponent </text>
</g>
<!-- AppModule&#45;&gt;AppComponent  -->
<g id="edge6" class="edge">
<title>AppModule&#45;&gt;AppComponent </title>
<path fill="none" stroke="black" stroke-dasharray="1,5" d="M466,-225.91C466,-225.91 466,-244.79 466,-244.79"/>
<polygon fill="black" stroke="black" points="462.5,-244.79 466,-254.79 469.5,-244.79 462.5,-244.79"/>
</g>
<!-- !environment -->
<g id="node4" class="node">
<title>!environment</title>
<polygon fill="#8dd3c7" stroke="black" points="511.92,-160.8 508.92,-164.8 487.92,-164.8 484.92,-160.8 420.08,-160.8 420.08,-124.8 511.92,-124.8 511.92,-160.8"/>
<text text-anchor="middle" x="466" y="-138.6" font-family="Times,serif" font-size="14.00">!environment</text>
</g>
<!-- !environment&#45;&gt;AppModule -->
<g id="edge3" class="edge">
<title>!environment&#45;&gt;AppModule</title>
<path fill="none" stroke="black" d="M466,-160.91C466,-160.91 466,-179.79 466,-179.79"/>
<polygon fill="black" stroke="black" points="462.5,-179.79 466,-189.79 469.5,-179.79 462.5,-179.79"/>
</g>
<!-- AppRoutingModule -->
<g id="node5" class="node">
<title>AppRoutingModule</title>
<polygon fill="#8dd3c7" stroke="black" points="402.27,-160.8 399.27,-164.8 378.27,-164.8 375.27,-160.8 273.73,-160.8 273.73,-124.8 402.27,-124.8 402.27,-160.8"/>
<text text-anchor="middle" x="338" y="-138.6" font-family="Times,serif" font-size="14.00">AppRoutingModule</text>
</g>
<!-- AppRoutingModule&#45;&gt;AppModule -->
<g id="edge4" class="edge">
<title>AppRoutingModule&#45;&gt;AppModule</title>
<path fill="none" stroke="black" d="M338,-160.82C338,-178.17 338,-201.8 338,-201.8 338,-201.8 414.09,-201.8 414.09,-201.8"/>
<polygon fill="black" stroke="black" points="414.09,-205.3 424.09,-201.8 414.09,-198.3 414.09,-205.3"/>
</g>
<!-- SharedModule -->
<g id="node6" class="node">
<title>SharedModule</title>
<polygon fill="#8dd3c7" stroke="black" points="255.42,-160.8 252.42,-164.8 231.42,-164.8 228.42,-160.8 156.58,-160.8 156.58,-124.8 255.42,-124.8 255.42,-160.8"/>
<text text-anchor="middle" x="206" y="-138.6" font-family="Times,serif" font-size="14.00">SharedModule</text>
</g>
<!-- SharedModule&#45;&gt;AppModule -->
<g id="edge5" class="edge">
<title>SharedModule&#45;&gt;AppModule</title>
<path fill="none" stroke="black" d="M206,-161.08C206,-182.12 206,-213.8 206,-213.8 206,-213.8 414.23,-213.8 414.23,-213.8"/>
<polygon fill="black" stroke="black" points="414.23,-217.3 424.23,-213.8 414.23,-210.3 414.23,-217.3"/>
</g>
<!-- ReservationComponent -->
<g id="node8" class="node">
<title>ReservationComponent</title>
<polygon fill="#ffffb3" stroke="black" points="966.2,-84.8 963.2,-88.8 942.2,-88.8 939.2,-84.8 817.8,-84.8 817.8,-48.8 966.2,-48.8 966.2,-84.8"/>
<text text-anchor="middle" x="892" y="-62.6" font-family="Times,serif" font-size="14.00">ReservationComponent</text>
</g>
<!-- ReservationsModule -->
<g id="node9" class="node">
<title>ReservationsModule</title>
<polygon fill="#8dd3c7" stroke="black" points="957.86,-160.8 954.86,-164.8 933.86,-164.8 930.86,-160.8 826.14,-160.8 826.14,-124.8 957.86,-124.8 957.86,-160.8"/>
<text text-anchor="middle" x="892" y="-138.6" font-family="Times,serif" font-size="14.00">ReservationsModule</text>
</g>
<!-- ReservationComponent&#45;&gt;ReservationsModule -->
<g id="edge7" class="edge">
<title>ReservationComponent&#45;&gt;ReservationsModule</title>
<path fill="none" stroke="black" d="M913.98,-84.81C913.98,-84.81 913.98,-114.65 913.98,-114.65"/>
<polygon fill="black" stroke="black" points="910.48,-114.65 913.98,-124.65 917.48,-114.65 910.48,-114.65"/>
</g>
<!-- ReservationComponent&#45;&gt;ReservationsModule -->
<g id="edge8" class="edge">
<title>ReservationComponent&#45;&gt;ReservationsModule</title>
<path fill="none" stroke="black" d="M870.02,-84.81C870.02,-84.81 870.02,-114.65 870.02,-114.65"/>
<polygon fill="black" stroke="black" points="866.52,-114.65 870.02,-124.65 873.52,-114.65 866.52,-114.65"/>
</g>
<!-- EditCellComponent -->
<g id="node10" class="node">
<title>EditCellComponent</title>
<polygon fill="#ffffb3" stroke="black" points="358,-84.8 230,-84.8 230,-48.8 358,-48.8 358,-84.8"/>
<text text-anchor="middle" x="294" y="-62.6" font-family="Times,serif" font-size="14.00">EditCellComponent</text>
</g>
<!-- EditCellComponent&#45;&gt;SharedModule -->
<g id="edge9" class="edge">
<title>EditCellComponent&#45;&gt;SharedModule</title>
<path fill="none" stroke="black" d="M242.61,-84.81C242.61,-84.81 242.61,-114.65 242.61,-114.65"/>
<polygon fill="black" stroke="black" points="239.11,-114.65 242.61,-124.65 246.11,-114.65 239.11,-114.65"/>
</g>
<!-- TableWithEditCellComponent -->
<g id="node11" class="node">
<title>TableWithEditCellComponent</title>
<polygon fill="#ffffb3" stroke="black" points="211.87,-84.8 24.13,-84.8 24.13,-48.8 211.87,-48.8 211.87,-84.8"/>
<text text-anchor="middle" x="118" y="-62.6" font-family="Times,serif" font-size="14.00">TableWithEditCellComponent</text>
</g>
<!-- TableWithEditCellComponent&#45;&gt;SharedModule -->
<g id="edge10" class="edge">
<title>TableWithEditCellComponent&#45;&gt;SharedModule</title>
<path fill="none" stroke="black" d="M184.36,-84.81C184.36,-84.81 184.36,-114.65 184.36,-114.65"/>
<polygon fill="black" stroke="black" points="180.86,-114.65 184.36,-124.65 187.86,-114.65 180.86,-114.65"/>
</g>
</g>
</svg>
